<?xml version="1.0" encoding="utf-8"?>
<svg viewBox="903.115 131.253 326.654 328.018" width="326.654" height="328.018" xmlns="http://www.w3.org/2000/svg">
  <g style="">
    <path d="M 1020.35 450.192 C 899.799 408.774 862.866 253.779 953.869 171.202 C 996.104 132.878 1056.587 121.11 1112.535 140.333 C 1233.085 181.751 1270.019 336.745 1179.016 419.322 C 1136.781 457.647 1076.298 469.414 1020.35 450.192 Z M 1125.048 284.763 C 1113.336 238.484 1057.177 218.31 1023.963 248.448 C 1020.788 251.33 1013.489 253.541 1011.12 257.017 C 1010.176 257.028 1004.755 269.644 1004.066 269.989 C 1002.162 270.941 1001.295 282.449 1001.295 282.449 C 1001.295 279.978 1000.819 290.563 1000.88 300.217 C 1000.948 305.031 1003.593 307.914 1004.826 312.787 C 1016.538 359.066 1075.707 372.215 1108.922 342.076 C 1124.336 328.088 1130.484 306.241 1125.048 284.763 Z" style="fill: rgb(232, 172, 88);"/>
    <g class="currentLayer" style="" transform="matrix(1, 0, 0, 0.980864, 663.970703, 56.976925)">
      <title>Layer 1</title>
      <path d="M 349.467 97.414 L 350.466 95.702 L 350.446 95.131 L 350.428 94.561 L 350.408 93.991 L 350.37 92.85 L 349.84 92.85 L 349.802 91.71 L 348.725 91.139 L 348.707 90.569 L 348.687 89.998 L 348.667 89.429 L 348.649 88.858 L 348.629 88.287 L 349.138 87.718 L 349.609 86.006 L 350.118 85.436 L 351.157 84.865 L 351.667 84.295 L 352.704 83.724 L 353.214 83.154 L 354.781 82.584 L 356.857 81.442 L 367.964 81.442 L 370.626 82.013 L 372.759 82.584 L 374.875 82.584 L 377.009 83.154 L 380.222 84.295 L 382.357 84.865 L 383.432 85.436 L 384.49 85.436 L 386.643 86.576 L 387.173 86.576 L 388.779 87.147 L 390.386 87.718 L 393.067 88.858 L 397.902 91.139 L 400.056 92.28 L 400.076 92.85 L 401.154 93.42 L 403.836 94.561 L 407.028 95.131 L 409.71 96.272 L 411.864 97.414 L 416.624 97.414 L 417.661 96.843 L 422.892 95.131 L 424.967 93.991 L 438.188 93.991 L 439.265 94.561 L 440.85 94.561 L 441.399 95.131 L 441.928 95.131 L 443.006 95.702 L 443.553 96.272 L 445.177 97.414 L 447.371 99.695 L 451.149 101.976 L 456.082 107.109 L 457.727 108.821 L 459.39 111.102 L 460.487 112.242 L 462.132 113.953 L 463.265 116.235 L 463.855 117.946 L 467.179 122.509 L 469.92 125.36 L 471.056 127.642 L 471.075 128.212 L 474.382 132.204 L 477.125 135.056 L 478.768 136.768 L 478.788 137.339 L 480.412 138.48 L 484.151 139.621 L 491.143 143.043 L 492.219 143.612 L 493.297 144.183 L 497.036 145.324 L 499.172 145.893 L 500.248 146.465 L 500.777 146.465 L 502.402 147.606 L 505.084 148.746 L 507.239 149.886 L 508.843 150.457 L 509.941 151.598 L 511.566 152.738 L 513.739 154.45 L 514.816 155.019 L 515.384 156.161 L 516.479 157.301 L 518.144 159.583 L 519.807 161.863 L 520.94 164.145 L 522.058 165.856 L 524.25 168.138 L 524.836 169.849 L 525.951 171.561 L 527.595 173.272 L 528.731 175.553 L 529.904 178.974 L 529.981 181.256 L 530.001 181.826 L 529.471 181.826 L 529.492 182.397 L 529.511 182.967 L 528.493 184.108 L 528.001 185.248 L 527.511 186.39 L 526.472 186.959 L 525.436 187.53 L 525.494 189.241 L 525.512 189.811 L 525.571 191.524 L 525.609 192.663 L 525.648 193.804 L 526.196 194.374 L 526.782 196.086 L 529.035 200.077 L 530.697 202.359 L 531.283 204.07 L 531.852 205.211 L 532.419 206.352 L 534.159 210.915 L 534.785 213.767 L 537.035 217.759 L 540.306 220.611 L 541.4 221.752 L 541.42 222.322 L 542.497 222.893 L 544.104 223.464 L 545.2 224.603 L 546.296 225.744 L 546.843 226.315 L 548.489 228.026 L 551.815 232.589 L 551.854 233.729 L 554.104 237.721 L 555.22 239.434 L 555.238 240.003 L 555.787 240.573 L 557.528 245.137 L 558.644 246.847 L 558.682 247.988 L 558.779 250.84 L 558.857 253.122 L 558.934 255.403 L 558.462 257.114 L 557.992 258.824 L 558.07 261.106 L 558.128 262.818 L 558.147 263.388 L 558.166 263.958 L 557.147 265.1 L 556.148 266.81 L 554.658 269.662 L 552.678 273.655 L 551.737 277.076 L 550.719 278.218 L 550.737 278.787 L 548.679 280.498 L 547.132 281.639 L 545.171 286.203 L 544.154 287.344 L 544.193 288.484 L 545.306 290.196 L 545.48 295.329 L 545.519 296.469 L 545.538 297.041 L 545.557 297.609 L 545.067 298.751 L 544.617 301.032 L 544.126 302.172 L 543.617 302.743 L 543.108 303.314 L 542.147 306.166 L 540.598 307.306 L 538.109 311.869 L 537.111 313.579 L 536.619 314.72 L 536.639 315.292 L 536.697 317.003 L 536.206 318.143 L 535.699 318.713 L 535.717 319.284 L 535.245 320.994 L 533.795 324.988 L 532.775 326.128 L 532.266 326.698 L 531.759 327.269 L 531.228 327.269 L 530.738 328.409 L 529.681 328.409 L 529.17 328.979 L 528.662 329.55 L 527.114 330.69 L 525.056 332.401 L 524.059 334.113 L 523.546 334.682 L 523.039 335.254 L 521.491 336.394 L 519.983 338.676 L 519.472 339.246 L 518.472 340.957 L 517.964 341.527 L 516.434 343.239 L 515.964 344.95 L 516.06 347.801 L 516.079 348.371 L 516.098 348.942 L 516.138 350.083 L 516.157 350.653 L 515.666 351.794 L 515.157 352.364 L 514.14 353.504 L 513.138 355.216 L 511.591 356.356 L 511.101 357.496 L 510.612 358.638 L 510.082 358.638 L 508.535 359.778 L 505.928 360.919 L 503.363 363.202 L 502.343 364.342 L 501.815 364.342 L 498.7 366.054 L 497.153 367.195 L 494.057 369.475 L 491.98 370.617 L 490.943 371.186 L 488.395 374.039 L 488.415 374.608 L 487.924 375.749 L 486.926 377.461 L 486.964 378.601 L 484.926 380.882 L 484.454 382.593 L 483.964 383.735 L 483.456 384.305 L 482.964 385.445 L 481.926 386.016 L 481.946 386.586 L 481.457 387.726 L 480.947 388.297 L 480.456 389.437 L 479.457 391.149 L 479.477 391.719 L 477.928 392.86 L 477.439 394.002 L 476.91 394.002 L 472.189 395.142 L 470.112 396.281 L 465.411 397.993 L 464.411 399.704 L 459.653 399.704 L 456.971 398.564 L 447.981 398.564 L 444.221 396.852 L 442.086 396.281 L 440.461 395.142 L 437.779 394.002 L 436.174 393.43 L 432.944 391.719 L 431.338 391.149 L 430.241 390.008 L 428.656 390.008 L 424.916 388.868 L 421.702 387.726 L 420.627 387.157 L 419.548 386.586 L 416.337 385.445 L 412.107 385.445 L 410.558 386.586 L 408.54 389.437 L 408.032 390.008 L 406.993 390.579 L 402.272 391.719 L 384.294 391.719 L 384.274 391.149 L 382.14 390.579 L 380.536 390.008 L 377.852 388.868 L 375.17 387.726 L 373.054 387.726 L 372.507 387.157 L 370.861 385.445 L 367.554 381.453 L 366.458 380.312 L 366.439 379.742 L 365.381 379.742 L 362.697 378.601 L 357.371 377.461 L 351.478 375.18 L 347.717 373.467 L 347.698 372.898 L 346.094 372.327 L 343.959 371.757 L 341.294 371.186 L 338.103 370.617 L 335.95 369.475 L 334.363 369.475 L 332.758 368.905 L 327.411 367.195 L 324.747 366.623 L 322.594 365.483 L 321.537 365.483 L 320.969 364.342 L 320.383 362.631 L 319.757 359.778 L 318.583 356.356 L 316.883 352.934 L 315.179 349.512 L 314.023 346.66 L 313.985 345.52 L 313.438 344.95 L 312.891 344.379 L 310.755 343.809 L 307.582 343.809 L 305.447 343.239 L 304.372 342.668 L 303.822 342.098 L 303.294 342.098 L 301.14 340.957 L 298.438 339.246 L 296.266 337.534 L 295.149 335.823 L 294.054 334.682 L 292.391 332.401 L 290.745 330.69 L 289.082 328.409 L 286.908 326.698 L 284.735 324.988 L 283.11 323.847 L 281.486 322.706 L 279.861 321.565 L 278.784 320.994 L 277.706 320.424 L 276.629 319.854 L 276.61 319.284 L 276.533 317.003 L 276.436 314.15 L 276.3 310.158 L 276.204 307.306 L 276.127 305.025 L 276.05 302.743 L 274.935 301.032 L 274.347 299.322 L 274.327 298.751 L 274.309 298.181 L 273.252 298.181 L 270.587 297.609 L 267.358 295.899 L 265.223 295.329 L 264.127 294.188 L 262.52 293.617 L 261.424 292.477 L 260.858 291.336 L 260.272 289.625 L 259.683 287.914 L 259.624 286.203 L 259.566 284.492 L 259.51 282.78 L 259.431 280.498 L 259.373 278.787 L 259.296 276.506 L 258.691 274.225 L 258.633 272.513 L 258.614 271.944 L 257.478 269.662 L 257.42 267.95 L 257.342 265.668 L 257.285 263.958 L 257.247 262.818 L 257.227 262.247 L 257.188 261.106 L 257.168 260.536 L 257.11 258.824 L 257.053 257.114 L 256.975 254.833 L 257.409 251.98 L 258.388 249.699 L 259.859 246.278 L 260.329 244.566 L 260.819 243.426 L 260.799 242.855 L 262.368 242.284 L 262.33 241.144 L 262.271 239.434 L 262.213 237.721 L 261.606 235.44 L 261 233.159 L 260.962 232.018 L 260.394 230.877 L 259.807 229.166 L 259.221 227.456 L 256.462 224.033 L 254.778 221.182 L 254.21 220.041 L 253.662 219.471 L 253.643 218.9 L 253.624 218.331 L 253.604 217.759 L 253.566 216.619 L 253.547 216.049 L 253.508 214.908 L 253.431 212.626 L 253.902 210.915 L 253.823 208.633 L 253.785 207.493 L 254.256 205.78 L 256.256 202.359 L 258.292 200.077 L 259.821 198.368 L 260.311 197.226 L 261.859 196.086 L 262.897 195.515 L 263.955 195.515 L 266.031 194.374 L 267.58 193.234 L 268.049 191.524 L 272.28 191.524 L 272.77 190.382 L 274.299 188.671 L 275.299 186.959 L 275.28 186.39 L 275.77 185.248 L 276.731 182.397 L 277.71 180.115 L 279.729 177.264 L 281.767 174.982 L 283.276 172.701 L 284.276 170.989 L 285.276 169.279 L 285.256 168.708 L 285.236 168.138 L 286.139 163.575 L 286.611 161.863 L 287.609 160.152 L 288.61 158.442 L 289.589 156.161 L 290.062 154.45 L 290.513 152.168 L 290.378 148.176 L 290.299 145.893 L 290.261 144.753 L 290.203 143.043 L 290.144 141.331 L 290.576 138.48 L 291.479 133.916 L 292.48 132.204 L 292.969 131.064 L 293.498 131.064 L 294.008 130.494 L 295.007 128.783 L 296.496 125.93 L 302.1 119.658 L 310.388 114.524 L 320.83 110.532 L 327.702 110.532 L 329.836 111.102 L 334.124 112.813 L 336.337 115.665 L 342.683 115.665 L 346.835 113.383 L 347.855 112.242 L 348.363 111.672 L 348.855 110.532 L 349.325 108.821 L 350.285 105.969 L 350.718 103.116 L 351.15 100.264 L 351.524 95.702 L 349.467 97.414 Z M 333.544 224.353 C 332.257 227.241 330.477 260.834 333.599 264.336 C 346.718 279.056 356.078 302.616 375.538 309.894 C 388.46 314.726 419.308 313.642 430.273 307.49 C 452.206 295.188 450.817 280.306 467.193 261.933 C 476.5 251.493 465.818 219.887 458.989 216.056 C 449.45 210.705 453.924 200.51 444.308 195.116 C 439.015 192.147 430.191 188.008 426.224 183.559 C 419.71 176.25 392.347 163.122 384.715 171.684 L 365.153 190.23 C 347.938 191.026 340.275 209.247 333.544 224.353 Z" style="color: rgb(216, 150, 62); stroke-linejoin: round; fill: rgb(231, 103, 103);" stroke-width="2" stroke-dashoffset="" fill-rule="nonzero" marker-start="" marker-mid="" marker-end="" id="svg_6" class="" fill-opacity="1"/>
      <polyline fill="#ffffff" stroke="#ffffff" style="color: rgb(216, 150, 62);" stroke-width="2" stroke-linejoin="round" stroke-dashoffset="" fill-rule="nonzero" marker-start="" marker-mid="" marker-end="" id="svg_2" points="421.60228353738785,118.61453795433044 421.60228353738785,119.17319720983505 421.60228353738785,120.29051572084427 421.04362428188324,123.08381199836731 "/>
      <polyline fill="#ffffff" stroke="#ffffff" style="color: rgb(216, 150, 62);" stroke-width="2" stroke-linejoin="round" stroke-dashoffset="" fill-rule="nonzero" marker-start="" marker-mid="" marker-end="" id="svg_4" points="390.317 131.464 389.2 134.257 388.641 134.816 389.132 134.525"/>
      <polyline fill="#ffffff" stroke="#ffffff" style="color: rgb(216, 150, 62);" stroke-width="2" stroke-linejoin="round" stroke-dashoffset="" fill-rule="nonzero" marker-start="" marker-mid="" marker-end="" id="svg_5" points="334.45143967866903,150.4581155180931 334.45143967866903,151.01677477359772 336.1274174451828,151.57543402910233 338.36205446720123,152.69275254011154 339.4793729782104,153.81007105112073 "/>
      <polyline fill="#ffffff" stroke="#ffffff" style="color: rgb(216, 150, 62);" stroke-width="2" stroke-linejoin="round" stroke-dashoffset="" fill-rule="nonzero" marker-start="" marker-mid="" marker-end="" id="svg_7" points="367.4123357534408,116.93856018781662 366.85367649793625,124.20113050937653 366.85367649793625,125.31844902038574 366.85367649793625,126.43576753139496 "/>
      <polyline fill="none" stroke="#ffffff" style="color: rgb(216, 150, 62);" stroke-width="2" stroke-linejoin="round" stroke-dashoffset="" fill-rule="nonzero" marker-start="" marker-mid="" marker-end="" id="svg_8" points="464.0603914260864,147.66481989622116 464.0603914260864,148.22347915172577 464.0603914260864,149.34079766273499 464.0603914260864,150.4581161737442 464.0603914260864,151.01677542924884 "/>
      <polyline fill="none" stroke="#ffffff" style="color: rgb(216, 150, 62);" stroke-width="2" stroke-linejoin="round" stroke-dashoffset="" fill-rule="nonzero" marker-start="" marker-mid="" marker-end="" id="svg_9" points="481.9374876022339,160.51398277282718 482.4961468577385,166.10057532787323 480.26150983572006,171.1285086274147 480.26150983572006,172.80448639392853 480.26150983572006,173.36314564943314 479.70285058021545,173.92180490493774 "/>
      <polyline fill="none" stroke="#ffffff" style="color: rgb(216, 150, 62);" stroke-width="2" stroke-linejoin="round" stroke-dashoffset="" fill-rule="nonzero" marker-start="" marker-mid="" marker-end="" id="svg_10" points="495.3453097343445,195.15085661411285 497.5799467563629,194.59219735860825 498.69726526737213,194.59219735860825 501.4905615448952,193.47487884759903 508.19447261095047,192.91621959209442 509.8704503774643,192.3575603365898 510.4291096329689,192.3575603365898 "/>
      <polyline fill="none" stroke="#ffffff" style="color: rgb(216, 150, 62);" stroke-width="2" stroke-linejoin="round" stroke-dashoffset="" fill-rule="nonzero" marker-start="" marker-mid="" marker-end="" id="svg_11" points="420.484969496727,171.1285086274147 421.6022880077362,169.45253086090088 421.6022880077362,168.89387160539627 422.7196065187454,167.77655309438705 423.83692502975464,166.65923458337784 425.51290279626846,165.54191607236862 425.51290279626846,164.98325681686404 "/>
      <polyline fill="none" stroke="#ffffff" style="color: rgb(216, 150, 62);" stroke-width="2" stroke-linejoin="round" stroke-dashoffset="" fill-rule="nonzero" marker-start="" marker-mid="" marker-end="" id="svg_12" points="386.4067549109459,163.3072790503502 386.4067549109459,162.74861979484558 385.2894363999367,162.18996053934097 383.05479937791824,161.63130128383636 380.2615031003952,161.07264202833176 377.46820682287216,160.51398277282718 375.23356980085373,160.51398277282718 "/>
      <polyline fill="none" stroke="#ffffff" style="color: rgb(216, 150, 62);" stroke-width="2" stroke-linejoin="round" stroke-dashoffset="" fill-rule="nonzero" marker-start="" marker-mid="" marker-end="" id="svg_13" points="335.01010340452194,181.18437522649765 335.01010340452194,181.74303448200226 335.01010340452194,182.30169373750687 335.01010340452194,182.86035299301147 333.3341256380081,185.65364927053452 332.2168071269989,188.44694554805758 331.6581478714943,190.681582570076 331.0994886159897,191.7989010810852 330.5408293604851,192.3575603365898 "/>
      <polyline fill="none" stroke="#ffffff" style="color: rgb(216, 150, 62);" stroke-width="2" stroke-linejoin="round" stroke-dashoffset="" fill-rule="nonzero" marker-start="" marker-mid="" marker-end="" id="svg_14" points="312.105073928833,184.5363307595253 310.9877554178238,184.5363307595253 309.8704369068146,183.97767150402066 307.63579988479614,183.41901224851608 305.4011628627777,182.86035299301147 "/>
      <polyline fill="none" stroke="#ffffff" style="color: rgb(216, 150, 62);" stroke-width="2" stroke-linejoin="round" stroke-dashoffset="" fill-rule="nonzero" marker-start="" marker-mid="" marker-end="" id="svg_15" points="310.9877554178238,153.81007170677185 310.4290961623192,151.57543468475342 310.4290961623192,151.01677542924884 308.75311839580536,148.22347915172577 308.19445914030075,147.66481989622116 "/>
      <polyline fill="none" stroke="#ffffff" style="color: rgb(216, 150, 62);" stroke-width="2" stroke-linejoin="round" stroke-dashoffset="" fill-rule="nonzero" marker-start="" marker-mid="" marker-end="" id="svg_16" points="281.937470972538,194.03353685140607 280.8201524615288,197.38549238443375 279.70283395051956,199.06147015094757 278.58551543951035,200.7374479174614 "/>
      <polyline fill="none" stroke="#ffffff" style="color: rgb(216, 150, 62);" stroke-width="2" stroke-linejoin="round" stroke-dashoffset="" fill-rule="nonzero" marker-start="" marker-mid="" marker-end="" id="svg_17" points="293.11065608263016,218.05588483810425 291.43467831611633,218.05588483810425 288.0827227830887,218.05588483810425 285.28942650556564,218.05588483810425 284.1721079945564,218.61454409360886 283.6134487390518,218.61454409360886 "/>
      <polyline fill="none" stroke="#ffffff" style="color: rgb(216, 150, 62);" stroke-width="2" stroke-linejoin="round" stroke-dashoffset="" fill-rule="nonzero" marker-start="" marker-mid="" marker-end="" id="svg_18" points="312.10507076978683,224.20113664865494 312.66373002529144,224.20113664865494 313.78104853630066,223.64247739315033 315.4570263028145,223.64247739315033 318.2503225803375,223.64247739315033 321.6022781133652,223.64247739315033 323.8369151353836,223.64247739315033 327.18887066841125,224.75979590415955 327.74752992391586,224.75979590415955 "/>
      <polyline fill="none" stroke="#ffffff" style="color: rgb(216, 150, 62);" stroke-width="2" stroke-linejoin="round" stroke-dashoffset="" fill-rule="nonzero" marker-start="" marker-mid="" marker-end="" id="svg_19" points="286.40674501657486,249.89946240186694 285.28942650556564,253.81007719039917 284.73076725006104,253.81007719039917 284.73076725006104,254.36873644590378 284.1721079945564,256.0447142124176 283.6134487390518,256.6033734679222 "/>
      <polyline fill="none" stroke="#ffffff" style="color: rgb(216, 150, 62);" stroke-width="2" stroke-linejoin="round" stroke-dashoffset="" fill-rule="nonzero" marker-start="" marker-mid="" marker-end="" id="svg_20" points="275.7922191619873,239.28493654727936 273.5575821399689,240.96091431379318 271.32294511795044,242.636892080307 270.76428586244583,243.19555133581161 270.2056266069412,243.19555133581161 "/>
      <polyline fill="none" stroke="#ffffff" style="color: rgb(72, 72, 72);" stroke-width="2" stroke-linejoin="round" stroke-dashoffset="" fill-rule="nonzero" marker-start="" marker-mid="" marker-end="" id="svg_21" points="503.16653299331665,223.64247804880142 503.16653299331665,225.87711507081985 503.16653299331665,228.67041134834292 502.60787373781204,232.02236688137054 "/>
      <polyline fill="none" stroke="#ffffff" style="color: rgb(72, 72, 72);" stroke-width="2" stroke-linejoin="round" stroke-dashoffset="" fill-rule="nonzero" marker-start="" marker-mid="" marker-end="" id="svg_22" points="498.1385996937752,257.1620333790779 498.1385996937752,258.2793518900871 499.814577460289,260.51398891210556 499.814577460289,261.6313074231148 500.3732367157936,263.3072851896286 500.9318959712982,263.8659444451332 500.9318959712982,264.9832629561424 "/>
      <polyline fill="none" stroke="#ffffff" style="color: rgb(72, 72, 72);" stroke-width="2" stroke-linejoin="round" stroke-dashoffset="" fill-rule="nonzero" marker-start="" marker-mid="" marker-end="" id="svg_23" points="524.3955847024918,248.22348529100418 524.9542439579964,248.7821445465088 525.512903213501,248.7821445465088 525.512903213501,249.3408038020134 528.306199491024,251.01678156852722 530.5408365130424,252.1341000795364 532.2168142795563,253.25141859054565 532.7754735350609,253.81007784605026 533.3341327905655,254.36873710155487 533.3341327905655,254.92739635705948 533.3341327905655,255.4860556125641 533.3341327905655,255.4860556125641 "/>
      <polyline fill="none" stroke="#ffffff" style="color: rgb(72, 72, 72);" stroke-width="2" stroke-linejoin="round" stroke-dashoffset="" fill-rule="nonzero" marker-start="" marker-mid="" marker-end="" id="svg_24" points="510.42910331487656,297.9441590309143 510.42910331487656,297.9441590309143 510.42910331487656,299.0614775419235 510.42910331487656,300.17879605293274 512.1050810813904,304.089410841465 512.663740336895,305.76538860797876 513.7810588479042,310.2346626520157 513.7810588479042,311.3519811630249 513.7810588479042,311.9106404185295 513.7810588479042,312.4692996740341 513.7810588479042,313.0279589295387 513.7810588479042,313.58661818504333 "/>
      <polyline fill="none" stroke="#ffffff" style="color: rgb(72, 72, 72);" stroke-width="2" stroke-linejoin="round" stroke-dashoffset="" fill-rule="nonzero" marker-start="" marker-mid="" marker-end="" id="svg_25" points="484.17211830616,299.62013679742813 483.0547997951507,299.0614775419235 480.8201627731323,299.0614775419235 479.7028442621231,299.0614775419235 479.1441850066185,299.0614775419235 478.02686649560934,299.0614775419235 476.90954798460007,300.17879605293274 474.67491096258163,300.7374553084374 472.4402739405632,301.29611456394196 471.322955429554,301.29611456394196 "/>
      <polyline fill="none" stroke="#ffffff" style="color: rgb(72, 72, 72);" stroke-width="2" stroke-linejoin="round" stroke-dashoffset="" fill-rule="nonzero" marker-start="" marker-mid="" marker-end="" id="svg_26" points="480.8201627731323,320.29052925109863 480.8201627731323,320.84918850660324 481.37882202863693,321.96650701761246 481.93748128414154,324.2011440396309 482.49614053964615,325.8771218061447 482.49614053964615,328.11175882816315 482.49614053964615,330.9050551056862 482.49614053964615,333.1396921277046 483.0547997951507,335.37432914972305 481.93748128414154,334.25701063871384 "/>
      <polyline fill="none" stroke="#ffffff" style="color: rgb(72, 72, 72);" stroke-width="2" stroke-linejoin="round" stroke-dashoffset="" fill-rule="nonzero" marker-start="" marker-mid="" marker-end="" id="svg_27" points="454.56317776441574,331.4637143611908 454.00451850891113,336.49164766073227 453.4458592534065,337.6089661717415 452.8871999979019,340.4022624492645 452.3285407423973,342.07824021577835 452.3285407423973,342.636899471283 451.7698814868927,342.636899471283 451.2112222313881,344.3128772377968 451.2112222313881,344.8715364933014 "/>
      <polyline fill="none" stroke="#ffffff" style="color: rgb(72, 72, 72);" stroke-width="2" stroke-linejoin="round" stroke-dashoffset="" fill-rule="nonzero" marker-start="" marker-mid="" marker-end="" id="svg_28" points="429.982170522213,324.75980329513544 429.4235112667084,324.75980329513544 429.4235112667084,324.75980329513544 428.86485201120377,324.75980329513544 427.1888742446899,324.2011440396309 "/>
      <polyline fill="none" stroke="#ffffff" style="color: rgb(72, 72, 72);" stroke-width="2" stroke-linejoin="round" stroke-dashoffset="" fill-rule="nonzero" marker-start="" marker-mid="" marker-end="" id="svg_29" points="407.63580030202866,323.6424847841263 407.07714104652405,324.2011440396309 407.07714104652405,324.75980329513544 407.07714104652405,325.3184625506401 407.07714104652405,325.8771218061447 407.07714104652405,326.4357810616493 407.07714104652405,326.99444031715393 407.07714104652405,326.99444031715393 407.07714104652405,327.55309957265854 "/>
      <polyline fill="none" stroke="#ffffff" style="color: rgb(72, 72, 72);" stroke-width="2" stroke-linejoin="round" stroke-dashoffset="" fill-rule="nonzero" marker-start="" marker-mid="" marker-end="" id="svg_30" points="396.4626151919365,343.19555872678757 396.4626151919365,343.7542179822922 395.9039559364319,344.3128772377968 391.9933411478996,345.430195748806 389.20004487037664,345.9888550043106 388.08272635936737,345.9888550043106 388.08272635936737,346.5475142598152 387.52406710386276,346.5475142598152 386.96540784835815,347.6648327708245 386.96540784835815,347.6648327708245 386.96540784835815,347.6648327708245 386.96540784835815,348.22349202632904 "/>
      <polyline fill="none" stroke="#ffffff" style="color: rgb(72, 72, 72);" stroke-width="2" stroke-linejoin="round" stroke-dashoffset="" fill-rule="nonzero" marker-start="" marker-mid="" marker-end="" id="svg_31" points="421.04362243413925,356.6033808588982 420.48496317863464,357.16204011440277 420.48496317863464,357.7206993699074 420.48496317863464,357.7206993699074 420.48496317863464,358.279358625412 419.92630392313004,359.3966771364212 419.3676446676254,360.5139956474304 418.8089854121208,361.072654902935 418.8089854121208,361.6313141584397 418.8089854121208,362.18997341394424 418.8089854121208,362.74863266944885 418.2503261566162,363.30729192495346 417.6916669011116,364.4246104359627 "/>
      <polyline fill="none" stroke="#ffffff" style="color: rgb(72, 72, 72);" stroke-width="2" stroke-linejoin="round" stroke-dashoffset="" fill-rule="nonzero" marker-start="" marker-mid="" marker-end="" id="svg_32" points="356.23914879560476,351.5754475593567 356.23914879560476,352.69276607036585 356.23914879560476,353.2514253258705 356.23914879560476,353.8100845813751 356.23914879560476,354.92740309238434 356.23914879560476,356.04472160339355 356.23914879560476,356.6033808588982 356.23914879560476,357.7206993699074 356.23914879560476,357.7206993699074 356.23914879560476,358.279358625412 356.7978080511093,359.3966771364212 356.7978080511093,359.9553363919258 356.7978080511093,360.5139956474304 356.7978080511093,360.5139956474304 "/>
      <polyline fill="none" stroke="#ffffff" style="color: rgb(72, 72, 72);" stroke-width="2" stroke-linejoin="round" stroke-dashoffset="" fill-rule="nonzero" marker-start="" marker-mid="" marker-end="" id="svg_33" points="366.2950153946876,321.40784776210785 366.2950153946876,320.84918850660324 365.73635613918304,320.29052925109863 365.73635613918304,319.73186999559397 365.17769688367844,319.1732107400894 365.17769688367844,318.0558922290802 364.6190376281738,316.938573718071 364.6190376281738,316.3799144625664 364.6190376281738,315.82125520706177 364.6190376281738,315.82125520706177 364.6190376281738,314.7039366960526 364.6190376281738,314.14527744054794 364.6190376281738,313.58661818504333 364.6190376281738,313.58661818504333 364.6190376281738,313.0279589295387 "/>
      <polyline fill="none" stroke="#ffffff" style="color: rgb(72, 72, 72);" stroke-width="2" stroke-linejoin="round" stroke-dashoffset="" fill-rule="nonzero" marker-start="" marker-mid="" marker-end="" id="svg_34" points="379.70283752679825,319.73186999559397 380.2614967823028,319.73186999559397 380.2614967823028,319.73186999559397 380.82015603780746,319.73186999559397 381.3788152933121,319.73186999559397 381.9374745488167,319.73186999559397 381.9374745488167,319.73186999559397 383.0547930598259,319.1732107400894 383.6134523153305,318.6145514845848 384.1721115708351,318.6145514845848 384.7307708263397,318.0558922290802 385.28943008184433,317.4972329735756 386.40674859285355,316.938573718071 387.52406710386276,316.3799144625664 388.641385614872,315.26259595155716 389.7587041258812,314.7039366960526 "/>
      <polyline fill="none" stroke="#ffffff" style="color: rgb(72, 72, 72);" stroke-width="2" stroke-linejoin="round" stroke-dashoffset="" fill-rule="nonzero" marker-start="" marker-mid="" marker-end="" id="svg_35" points="350.093896985054,329.78773659467697 348.9765784740448,331.4637143611908 348.4179192185402,332.5810328722 348.4179192185402,333.1396921277046 347.8592599630356,333.6983513832093 347.8592599630356,334.25701063871384 347.30060070753103,334.25701063871384 346.74194145202637,335.37432914972305 346.18328219652176,335.93298840522766 346.18328219652176,335.93298840522766 346.18328219652176,336.49164766073227 346.18328219652176,337.6089661717415 345.62462294101715,337.6089661717415 345.62462294101715,338.1676254272461 "/>
      <polyline fill="none" stroke="#ffffff" style="color: rgb(72, 72, 72);" stroke-width="2" stroke-linejoin="round" stroke-dashoffset="" fill-rule="nonzero" marker-start="" marker-mid="" marker-end="" id="svg_36" points="340.03803038597107,301.29611456394196 341.7140081524849,300.17879605293274 342.8313266634941,299.62013679742813 343.9486451745033,299.0614775419235 345.06596368551254,298.5028182864189 345.62462294101715,298.5028182864189 345.62462294101715,297.9441590309143 346.18328219652176,297.9441590309143 346.18328219652176,297.3854997754097 346.74194145202637,296.82684051990503 347.30060070753103,296.82684051990503 347.30060070753103,296.2681812644005 "/>
      <polyline fill="none" stroke="#ffffff" style="color: rgb(72, 72, 72);" stroke-width="2" stroke-linejoin="round" stroke-dashoffset="" fill-rule="nonzero" marker-start="" marker-mid="" marker-end="" id="svg_37" points="327.1888675093651,319.73186999559397 327.1888675093651,319.73186999559397 327.1888675093651,319.1732107400894 326.07154899835587,318.6145514845848 326.07154899835587,318.0558922290802 325.51288974285126,318.0558922290802 324.95423048734665,317.4972329735756 324.395571231842,317.4972329735756 323.2782527208328,316.938573718071 321.602274954319,316.3799144625664 319.9262971878052,315.82125520706177 319.3676379323005,315.82125520706177 "/>
      <polyline fill="none" stroke="#ffffff" style="color: rgb(72, 72, 72);" stroke-width="2" stroke-linejoin="round" stroke-dashoffset="" fill-rule="nonzero" marker-start="" marker-mid="" marker-end="" id="svg_38" points="294.2279714345932,301.85477381944656 293.110652923584,301.29611456394196 292.5519936680794,300.7374553084374 291.99333441257477,300.7374553084374 291.4346751570701,300.7374553084374 290.31735664606094,300.7374553084374 289.75869739055634,300.7374553084374 288.6413788795471,300.7374553084374 283.61344558000565,300.17879605293274 281.9374678134918,300.17879605293274 "/>
      <polyline fill="none" stroke="#ffffff" style="color: rgb(72, 72, 72);" stroke-width="2" stroke-linejoin="round" stroke-dashoffset="" fill-rule="nonzero" marker-start="" marker-mid="" marker-end="" id="svg_39" points="308.753112077713,277.2737665772438 309.3117713332176,276.1564480662346 310.4290898442268,274.48047029972076 310.98774909973145,272.24583327770233 312.66372686624527,269.4525370001793 313.7810453772545,267.21789997816086 314.33970463275915,265.54192221164703 314.8983638882637,265.54192221164703 314.8983638882637,264.9832629561424 "/>
      <polyline fill="none" stroke="#ffffff" style="color: rgb(72, 72, 72);" stroke-width="2" stroke-linejoin="round" stroke-dashoffset="" fill-rule="nonzero" marker-start="" marker-mid="" marker-end="" id="svg_40" points="316.0156868696213,242.07823413610458 316.5743461251259,242.07823413610458 317.6916646361351,242.07823413610458 318.2503238916397,242.07823413610458 319.36764240264887,242.07823413610458 319.92630165815353,242.6368933916092 320.48496091365814,243.1955526471138 321.04362016916275,243.1955526471138 "/>
      <polyline fill="none" stroke="#ffffff" style="color: rgb(72, 72, 72);" stroke-width="2" stroke-linejoin="round" stroke-dashoffset="" fill-rule="nonzero" marker-start="" marker-mid="" marker-end="" id="svg_41" points="475.7922339439392,187.32962709665298 475.2335746884346,187.32962709665298 474.1162561774254,189.56426411867142 473.5575969219208,190.68158262968063 472.9989376664162,191.79890114068985 472.44027841091156,192.35756039619446 472.44027841091156,192.91621965169907 471.88161915540695,193.47487890720365 471.88161915540695,194.5921974182129 "/>
      <polyline fill="none" stroke="#ffffff" style="color: rgb(72, 72, 72);" stroke-width="2" stroke-linejoin="round" stroke-dashoffset="" fill-rule="nonzero" marker-start="" marker-mid="" marker-end="" id="svg_42" points="442.2726786136627,132.58102005720139 442.2726786136627,132.02236080169678 442.8313378691673,131.46370154619217 443.38999712467194,130.90504229068756 443.94865638017654,130.90504229068756 444.50731563568115,130.34638303518295 444.50731563568115,129.78772377967834 444.50731563568115,129.22906452417374 445.0659748911858,128.67040526866913 445.62463414669037,128.67040526866913 445.62463414669037,128.67040526866913 446.183293402195,127.55308675765991 446.7419526576996,126.9944275021553 "/>
      <polyline fill="none" stroke="#ffffff" style="color: rgb(72, 72, 72);" stroke-width="2" stroke-linejoin="round" stroke-dashoffset="" fill-rule="nonzero" marker-start="" marker-mid="" marker-end="" id="svg_43" points="427.74753481149673,147.66481870412824 427.74753481149673,148.22347795963287 427.74753481149673,148.78213721513748 427.74753481149673,148.78213721513748 427.74753481149673,150.4581149816513 428.30619406700134,151.57543349266052 428.86485332250595,152.69275200366974 428.86485332250595,153.25141125917435 429.98217183351517,155.48604828119278 430.54083108901983,156.0447075366974 430.54083108901983,156.60336679220202 "/>
      <polyline fill="#e767e7" stroke="#ffffff" style="color: rgb(72, 72, 72);" stroke-width="2" stroke-linejoin="round" stroke-dashoffset="" fill-rule="nonzero" marker-start="" marker-mid="" marker-end="" id="svg_44" points="419.3676472902298,129.787723839283 419.3676472902298,130.9050423502922 419.3676472902298,134.81565713882446 419.3676472902298,137.6089534163475 419.3676472902298,138.72627192735672 419.3676472902298,140.40224969387054 "/>
      <polyline fill="#e767e7" stroke="#e8e841" style="color: rgb(72, 72, 72);" stroke-width="2" stroke-linejoin="round" stroke-dashoffset="" fill-rule="nonzero" marker-start="" marker-mid="" marker-end="" id="svg_45" points="460.7084321975708,161.63130140304565 460.1497729420662,164.4245976805687 459.5911136865616,166.65923470258713 459.032454431057,169.45253098011017 459.032454431057,171.6871680021286 459.032454431057,172.2458272576332 "/>
      <polyline fill="#e767e7" stroke="#e8e841" style="color: rgb(72, 72, 72);" stroke-width="2" stroke-linejoin="round" stroke-dashoffset="" fill-rule="nonzero" marker-start="" marker-mid="" marker-end="" id="svg_46" points="397.02127707004547,149.34079778194427 397.5799363255501,149.34079778194427 398.6972548365593,149.89945703744888 399.8145733475685,149.89945703744888 400.9318918585777,149.89945703744888 400.9318918585777,150.4581162929535 401.49055111408234,150.4581162929535 402.049210369587,150.4581162929535 402.049210369587,150.4581162929535 402.60786962509155,150.4581162929535 403.16652888059616,150.4581162929535 403.72518813610077,150.4581162929535 "/>
      <polyline fill="#e767e7" stroke="#e8e841" style="color: rgb(72, 72, 72);" stroke-width="2" stroke-linejoin="round" stroke-dashoffset="" fill-rule="nonzero" marker-start="" marker-mid="" marker-end="" id="svg_47" points="402.60786962509155,118.05587947368622 402.60786962509155,117.49722021818161 402.60786962509155,116.3799017071724 402.60786962509155,115.82124245166779 402.60786962509155,114.70392394065857 402.60786962509155,114.14526468515396 402.60786962509155,113.58660542964935 402.60786962509155,111.91062766313553 403.16652888059616,110.2346498966217 "/>
      <polyline fill="#e767e7" stroke="#e8e841" style="color: rgb(72, 72, 72);" stroke-width="2" stroke-linejoin="round" stroke-dashoffset="" fill-rule="nonzero" marker-start="" marker-mid="" marker-end="" id="svg_48" points="364.6190402507782,138.1676126718521 363.501721739769,138.1676126718521 362.9430624842644,138.1676126718521 361.26708471775055,138.1676126718521 359.5911069512367,138.1676126718521 359.0324476957321,139.28493118286133 358.4737884402275,139.28493118286133 357.9151291847229,139.28493118286133 356.2391514182091,139.84359043836594 355.1218329071999,139.84359043836594 "/>
      <polyline fill="#e767e7" stroke="#e8e841" style="color: rgb(72, 72, 72);" stroke-width="2" stroke-linejoin="round" stroke-dashoffset="" fill-rule="nonzero" marker-start="" marker-mid="" marker-end="" id="svg_49" points="347.30060333013535,177.27376055717468 348.41792184114456,177.8324198126793 348.97658109664917,177.8324198126793 348.97658109664917,178.3910790681839 350.0938996076584,179.50839757919314 351.21121811866755,181.18437534570694 352.3285366296768,181.74303460121155 352.3285366296768,182.30169385671616 352.8871958851814,182.30169385671616 "/>
      <polyline fill="#e767e7" stroke="#e8e841" style="color: rgb(72, 72, 72);" stroke-width="2" stroke-linejoin="round" stroke-dashoffset="" fill-rule="nonzero" marker-start="" marker-mid="" marker-end="" id="svg_50" points="312.10507023334503,169.45253098011017 312.10507023334503,169.45253098011017 311.5464109778404,168.89387172460556 310.9877517223358,168.33521246910095 310.4290924668312,168.33521246910095 309.8704332113266,168.33521246910095 309.8704332113266,167.77655321359634 309.8704332113266,167.77655321359634 309.8704332113266,167.77655321359634 309.31177395582193,167.21789395809174 308.1944554448128,166.10057544708252 305.95981842279434,164.9832569360733 305.40115916728973,164.9832569360733 "/>
      <polyline fill="#e767e7" stroke="#e8e841" style="color: rgb(72, 72, 72);" stroke-width="2" stroke-linejoin="round" stroke-dashoffset="" fill-rule="nonzero" marker-start="" marker-mid="" marker-end="" id="svg_51" points="309.3117707967758,205.76538133621216 310.42908930778503,205.76538133621216 311.54640781879425,206.32404059171677 311.54640781879425,206.88269984722137 312.10506707429886,206.88269984722137 312.10506707429886,207.44135910272598 313.2223855853081,207.44135910272598 313.7810448408127,208.0000183582306 313.7810448408127,208.0000183582306 314.3397040963173,208.55867761373517 314.8983633518219,208.55867761373517 315.4570226073265,208.55867761373517 "/>
      <polyline fill="#e767e7" stroke="#e8e841" style="color: rgb(72, 72, 72);" stroke-width="2" stroke-linejoin="round" stroke-dashoffset="" fill-rule="nonzero" marker-start="" marker-mid="" marker-end="" id="svg_52" points="299.8145634531975,237.05029964447021 299.8145634531975,237.05029964447021 299.8145634531975,237.60895889997482 299.8145634531975,238.72627741098404 299.8145634531975,239.84359592199326 299.25590419769287,240.40225517749786 298.6972449421883,240.9609144330025 298.13858568668365,241.51957368850708 298.13858568668365,242.0782329440117 297.57992643117905,242.6368921995163 297.57992643117905,242.6368921995163 297.02126717567444,242.6368921995163 297.02126717567444,243.1955514550209 297.02126717567444,243.7542107105255 297.02126717567444,244.87152922153473 297.02126717567444,244.87152922153473 297.02126717567444,245.43018847703934 "/>
      <polyline fill="#e767e7" stroke="#e8e841" style="color: rgb(72, 72, 72);" stroke-width="2" stroke-linejoin="round" stroke-dashoffset="" fill-rule="nonzero" marker-start="" marker-mid="" marker-end="" id="svg_53" points="276.90953397750854,278.3910845518112 276.90953397750854,278.3910845518112 277.46819323301315,278.3910845518112 277.46819323301315,279.50840306282043 278.02685248851776,280.06706231832504 278.58551174402237,280.62572157382965 279.7028302550316,281.18438082933426 280.2614895105362,281.74304008483887 281.3788080215454,281.74304008483887 281.93746727705,282.3016993403435 282.4961265325546,282.3016993403435 "/>
      <polyline fill="#e767e7" stroke="#e8e841" style="color: rgb(72, 72, 72);" stroke-width="2" stroke-linejoin="round" stroke-dashoffset="" fill-rule="nonzero" marker-start="" marker-mid="" marker-end="" id="svg_54" points="330.5408225059509,281.74304008483887 328.8648447394371,282.8603585958481 328.3061854839325,282.8603585958481 327.1888669729233,283.4190178513527 326.6302077174187,283.9776771068573 326.07154846191406,284.5363363623619 324.95422995090485,285.6536548733711 324.39557069540024,286.21231412887573 323.83691143989563,286.77097338438034 323.83691143989563,287.32963263988495 323.278252184391,287.32963263988495 323.278252184391,287.88829189538956 323.278252184391,287.88829189538956 "/>
      <polyline fill="#e767e7" stroke="#e8e841" style="color: rgb(72, 72, 72);" stroke-width="2" stroke-linejoin="round" stroke-dashoffset="" fill-rule="nonzero" marker-start="" marker-mid="" marker-end="" id="svg_55" points="367.41233336925507,342.63689893484116 367.41233336925507,343.19555819034576 367.9709926247597,343.7542174458504 369.0883111357689,344.8715359568596 369.0883111357689,346.5475137233734 369.6469703912735,346.5475137233734 370.2056296467781,347.66483223438263 371.3229481577873,348.78215074539185 371.3229481577873,349.34081000089645 372.44026666879654,349.89946925640106 "/>
      <polyline fill="#e767e7" stroke="#e8e841" style="color: rgb(72, 72, 72);" stroke-width="2" stroke-linejoin="round" stroke-dashoffset="" fill-rule="nonzero" marker-start="" marker-mid="" marker-end="" id="svg_56" points="323.83691143989563,332.02237308025366 323.83691143989563,332.5810323357582 323.83691143989563,333.6983508467674 324.95422995090485,335.37432861328125 325.51288920640945,336.49164712429047 325.51288920640945,337.6089656352997 326.6302077174187,339.2849434018135 327.1888669729233,340.9609211683274 327.7475262284279,340.9609211683274 327.7475262284279,340.9609211683274 "/>
      <polyline fill="#e767e7" stroke="#e8e841" style="color: rgb(72, 72, 72);" stroke-width="2" stroke-linejoin="round" stroke-dashoffset="" fill-rule="nonzero" marker-start="" marker-mid="" marker-end="" id="svg_57" points="438.3620588183403,361.0726543664932 438.3620588183403,362.18997287750244 438.9207180738449,363.30729138851166 439.47937732934946,364.9832691550254 440.59669584035873,366.6592469215393 441.15535509586334,367.7765654325485 441.71401435136795,368.33522468805313 442.27267360687256,368.89388394355774 442.27267360687256,369.45254319906235 442.27267360687256,370.01120245456696 442.27267360687256,370.01120245456696 442.27267360687256,370.56986171007156 442.83133286237717,371.6871802210808 442.83133286237717,372.2458394765854 442.83133286237717,371.6871802210808 "/>
      <polyline fill="#e767e7" stroke="#e8e841" style="color: rgb(72, 72, 72);" stroke-width="2" stroke-linejoin="round" stroke-dashoffset="" fill-rule="nonzero" marker-start="" marker-mid="" marker-end="" id="svg_58" points="435.56876254081726,330.3463953137398 435.56876254081726,330.3463953137398 436.12742179632187,330.3463953137398 436.6860810518265,330.3463953137398 438.3620588183403,328.11175829172134 438.9207180738449,327.55309903621674 441.15535509586334,325.8771212697029 441.15535509586334,325.3184620141983 441.71401435136795,324.7598027586937 442.27267360687256,324.2011435031891 442.83133286237717,323.6424842476845 443.38999211788183,323.0838249921798 443.9486513733864,321.40784722566605 443.9486513733864,321.40784722566605 443.9486513733864,320.84918797016144 444.507310628891,320.29052871465683 "/>
      <polyline fill="#e767e7" stroke="#e8e841" style="color: rgb(72, 72, 72);" stroke-width="2" stroke-linejoin="round" stroke-dashoffset="" fill-rule="nonzero" marker-start="" marker-mid="" marker-end="" id="svg_59" points="486.9654140472412,283.4190178513527 486.4067547917366,283.4190178513527 485.848095536232,283.4190178513527 485.848095536232,283.4190178513527 484.7307770252228,283.4190178513527 483.05479925870895,282.8603585958481 480.8201622366905,281.18438082933426 478.0268659591675,280.06706231832504 477.4682067036629,280.06706231832504 "/>
      <polyline fill="#e767e7" stroke="#e8e841" style="color: rgb(72, 72, 72);" stroke-width="2" stroke-linejoin="round" stroke-dashoffset="" fill-rule="nonzero" marker-start="" marker-mid="" marker-end="" id="svg_60" points="523.2782656550407,283.4190178513527 523.8369249105453,283.4190178513527 524.39558416605,283.4190178513527 524.9542434215546,283.4190178513527 526.6302211880684,285.0949956178665 527.7475396990776,285.0949956178665 527.7475396990776,285.6536548733711 528.3061989545822,285.6536548733711 528.3061989545822,285.6536548733711 528.8648582100868,285.6536548733711 529.4235174655914,285.6536548733711 529.982176721096,285.6536548733711 530.5408359766006,286.21231412887573 531.0994952321053,286.21231412887573 531.0994952321053,286.21231412887573 "/>
      <polyline fill="#e767e7" stroke="#e8e841" style="color: rgb(72, 72, 72);" stroke-width="2" stroke-linejoin="round" stroke-dashoffset="" fill-rule="nonzero" marker-start="" marker-mid="" marker-end="" id="svg_61" points="512.1050805449486,267.21789944171906 513.2223990559578,266.10058093070984 513.7810583114624,264.9832624197006 513.7810583114624,264.424603164196 514.339717566967,263.8659439086914 514.339717566967,263.3072846531868 514.339717566967,262.1899661421776 514.8983768224716,261.07264763116837 514.8983768224716,261.07264763116837 "/>
      <polyline fill="#e767e7" stroke="#e8e841" style="color: rgb(72, 72, 72);" stroke-width="2" stroke-linejoin="round" stroke-dashoffset="" fill-rule="nonzero" marker-start="" marker-mid="" marker-end="" id="svg_62" points="527.7475396990776,228.6704108119011 528.3061989545822,228.6704108119011 528.3061989545822,228.6704108119011 529.4235174655914,228.6704108119011 530.5408359766006,229.7877293229103 531.0994952321053,230.34638857841492 531.6581544876099,230.34638857841492 532.2168137431145,230.34638857841492 532.2168137431145,230.90504783391953 532.2168137431145,230.90504783391953 533.3341322541237,231.46370708942416 534.4514507651329,232.02236634492874 535.0101100206375,232.02236634492874 535.5687692761421,232.58102560043335 536.1274285316467,232.58102560043335 536.1274285316467,232.02236634492874 534.4514507651329,230.34638857841492 533.8927915096283,229.2290700674057 "/>
      <polyline fill="#e767e7" stroke="#e8e841" style="color: rgb(72, 72, 72);" stroke-width="2" stroke-linejoin="round" stroke-dashoffset="" fill-rule="nonzero" marker-start="" marker-mid="" marker-end="" id="svg_63" points="519.3676508665085,214.14527016878128 520.4849693775177,213.58661091327667 521.6022878885269,212.46929240226746 522.7196063995361,210.79331463575363 523.2782656550407,209.1173368692398 524.39558416605,206.88269984722137 524.9542434215546,206.32404059171677 524.9542434215546,204.08940356969833 525.5129026770592,203.53074431419375 526.0715619325638,202.4134258031845 526.0715619325638,201.8547665476799 "/>
      <polyline fill="#e767e7" stroke="#e8e841" style="color: rgb(72, 72, 72);" stroke-width="2" stroke-linejoin="round" stroke-dashoffset="" fill-rule="nonzero" marker-start="" marker-mid="" marker-end="" id="svg_64" points="496.46262139081955,210.23465538024902 495.3453028798103,210.23465538024902 494.7866436243057,210.23465538024902 493.6693251132965,210.23465538024902 492.5520066022873,210.23465538024902 491.9933473467827,210.23465538024902 491.4346880912781,210.23465538024902 490.87602883577347,210.23465538024902 490.87602883577347,210.23465538024902 489.75871032476425,210.23465538024902 489.20005106925964,210.23465538024902 "/>
      <polyline fill="#e767e7" stroke="#e8e841" style="color: rgb(72, 72, 72);" stroke-width="2" stroke-linejoin="round" stroke-dashoffset="" fill-rule="nonzero" marker-start="" marker-mid="" marker-end="" id="svg_65" points="507.0771472454071,170.01118898391724 508.1944657564163,170.01118898391724 508.75312501192093,170.01118898391724 509.87044352293015,170.01118898391724 510.98776203393936,171.12850749492642 512.1050805449486,171.68716675043106 513.2223990559578,172.24582600593567 513.7810583114624,172.24582600593567 514.339717566967,172.24582600593567 514.339717566967,172.24582600593567 514.8983768224716,172.24582600593567 514.8983768224716,172.80448526144028 515.4570360779762,172.80448526144028 516.0156953334808,172.80448526144028 516.5743545889854,172.80448526144028 517.13301384449,172.80448526144028 "/>
      <polyline fill="#e767e7" stroke="#e8e841" style="color: rgb(72, 72, 72);" stroke-width="2" stroke-linejoin="round" stroke-dashoffset="" fill-rule="nonzero" marker-start="" marker-mid="" marker-end="" id="svg_66" points="462.3844068050385,138.16761142015457 463.50172531604767,138.16761142015457 465.1777030825615,138.16761142015457 466.2950215935707,137.60895216464996 467.97099936008453,137.60895216464996 469.08831787109375,137.05029290914536 470.20563638210297,137.05029290914536 470.7642956376076,136.49163365364075 "/>
      <polyline fill="#e767e7" stroke="#6767e7" style="color: rgb(72, 72, 72);" stroke-width="2" stroke-linejoin="round" stroke-dashoffset="" fill-rule="nonzero" marker-start="" marker-mid="" marker-end="" id="svg_67" points="445.0659698843956,151.01677429676056 445.6246291399002,151.01677429676056 445.6246291399002,153.8100705742836 445.6246291399002,155.48604834079742 445.6246291399002,157.72068536281586 445.6246291399002,161.0726408958435 446.1832883954048,162.18995940685272 446.1832883954048,162.74861866235733 "/>
      <polyline fill="#e767e7" stroke="#6767e7" style="color: rgb(72, 72, 72);" stroke-width="2" stroke-linejoin="round" stroke-dashoffset="" fill-rule="nonzero" marker-start="" marker-mid="" marker-end="" id="svg_68" points="355.6804890036583,154.92738908529282 357.3564667701721,157.16202610731122 357.9151260256767,159.39666312932968 358.47378528118134,160.5139816403389 359.03244453668594,161.63130015134814 359.5911037921906,162.18995940685272 359.5911037921906,162.74861866235733 360.14976304769516,163.86593717336655 360.14976304769516,164.42459642887115 360.14976304769516,164.98325568437576 "/>
      <polyline fill="#e767e7" stroke="#6767e7" style="color: rgb(72, 72, 72);" stroke-width="2" stroke-linejoin="round" stroke-dashoffset="" fill-rule="nonzero" marker-start="" marker-mid="" marker-end="" id="svg_69" points="333.8927780389786,134.81565588712692 334.4514372944832,134.81565588712692 335.5687558054924,134.25699663162231 336.127415060997,133.6983373761177 336.68607431650156,133.6983373761177 337.80339282751083,133.6983373761177 338.36205208301544,133.1396781206131 338.92071133852005,132.5810188651085 339.47937059402466,132.5810188651085 340.03802984952927,132.5810188651085 340.59668910503393,132.5810188651085 340.59668910503393,132.02235960960388 341.1553483605385,132.02235960960388 341.7140076160431,132.02235960960388 341.7140076160431,131.46370035409927 "/>
      <polyline fill="#e767e7" stroke="#6767e7" style="color: rgb(72, 72, 72);" stroke-width="2" stroke-linejoin="round" stroke-dashoffset="" fill-rule="nonzero" marker-start="" marker-mid="" marker-end="" id="svg_70" points="390.317362844944,101.29610055685043 390.8760221004486,101.29610055685043 391.9933406114578,101.29610055685043 393.11065912246704,102.41341906785965 394.22797763347626,102.97207832336426 394.78663688898087,103.53073757886887 395.9039553999901,104.08939683437347 398.6972516775131,105.20671534538269 401.4905479550362,105.7653746008873 402.04920721054077,105.7653746008873 "/>
      <polyline fill="#e767e7" stroke="#6767e7" style="color: rgb(72, 72, 72);" stroke-width="2" stroke-linejoin="round" stroke-dashoffset="" fill-rule="nonzero" marker-start="" marker-mid="" marker-end="" id="svg_71" points="443.9486513733864,114.14526343345642 444.507310628891,114.14526343345642 445.6246291399002,114.70392268896103 446.1832883954048,114.70392268896103 447.30060690641403,115.26258194446564 448.4179254174233,115.82124119997025 450.6525624394417,115.82124119997025 451.7698809504509,116.93855971097946 452.8871994614601,116.93855971097946 "/>
      <polyline fill="#e767e7" stroke="#6767e7" style="color: rgb(72, 72, 72);" stroke-width="2" stroke-linejoin="round" stroke-dashoffset="" fill-rule="nonzero" marker-start="" marker-mid="" marker-end="" id="svg_72" points="501.490554690361,151.57543355226517 501.490554690361,152.69275206327438 501.490554690361,152.69275206327438 501.490554690361,153.251411318779 501.490554690361,154.92738908529282 501.490554690361,156.04470759630203 501.490554690361,156.60336685180664 501.490554690361,157.16202610731122 501.490554690361,158.27934461832047 501.490554690361,158.83800387382507 501.490554690361,159.39666312932968 501.490554690361,159.39666312932968 501.490554690361,159.9553223848343 "/>
      <polyline fill="#e767e7" stroke="#6767e7" style="color: rgb(72, 72, 72);" stroke-width="2" stroke-linejoin="round" stroke-dashoffset="" fill-rule="nonzero" marker-start="" marker-mid="" marker-end="" id="svg_73" points="490.3173695802689,243.1955514550209 490.87602883577347,243.1955514550209 490.87602883577347,243.7542107105255 491.9933473467827,244.31286996603012 493.6693251132965,244.87152922153473 494.7866436243057,245.43018847703934 494.7866436243057,245.98884773254395 494.7866436243057,245.98884773254395 495.3453028798103,245.98884773254395 497.02128064632416,245.98884773254395 497.02128064632416,246.54750698804855 "/>
      <polyline fill="#e767e7" stroke="#6767e7" style="color: rgb(72, 72, 72);" stroke-width="2" stroke-linejoin="round" stroke-dashoffset="" fill-rule="nonzero" marker-start="" marker-mid="" marker-end="" id="svg_74" points="546.7419543862343,245.98884773254395 546.7419543862343,247.66482549905777 546.7419543862343,249.3408032655716 546.7419543862343,251.01678103208542 546.7419543862343,253.25141805410385 546.7419543862343,254.9273958206177 546.7419543862343,255.48605507612228 546.7419543862343,256.0447143316269 "/>
      <polyline fill="#e767e7" stroke="#6767e7" style="color: rgb(72, 72, 72);" stroke-width="2" stroke-linejoin="round" stroke-dashoffset="" fill-rule="nonzero" marker-start="" marker-mid="" marker-end="" id="svg_75" points="507.6358065009117,287.32963263988495 506.5184879899025,287.32963263988495 505.4011694788933,287.88829189538956 504.2838509678841,288.44695115089417 503.16653245687485,288.44695115089417 503.16653245687485,288.44695115089417 503.16653245687485,288.44695115089417 502.60787320137024,289.0056104063988 502.04921394586563,289.0056104063988 501.490554690361,289.0056104063988 501.490554690361,289.5642696619034 500.3732361793518,289.5642696619034 499.2559176683426,290.6815881729126 498.697258412838,291.2402474284172 498.1385991573334,291.2402474284172 "/>
      <polyline fill="#e767e7" stroke="#6767e7" style="color: rgb(72, 72, 72);" stroke-width="2" stroke-linejoin="round" stroke-dashoffset="" fill-rule="nonzero" marker-start="" marker-mid="" marker-end="" id="svg_76" points="499.8145769238472,326.4357805252075 500.9318954348564,327.55309903621674 500.9318954348564,328.67041754722595 502.04921394586563,330.3463953137398 502.60787320137024,332.5810323357582 503.16653245687485,333.1396915912628 503.16653245687485,333.6983508467674 503.16653245687485,334.81566935777664 503.72519171237946,334.81566935777664 503.72519171237946,335.37432861328125 504.2838509678841,335.37432861328125 "/>
      <polyline fill="#e767e7" stroke="#6767e7" style="color: rgb(72, 72, 72);" stroke-width="2" stroke-linejoin="round" stroke-dashoffset="" fill-rule="nonzero" marker-start="" marker-mid="" marker-end="" id="svg_77" points="476.3508881926537,347.106172978878 478.0268659591675,347.106172978878 478.5855252146721,347.106172978878 479.7028437256813,347.106172978878 480.2615029811859,347.106172978878 480.8201622366905,347.106172978878 481.3788214921951,347.106172978878 481.93748074769974,347.106172978878 483.05479925870895,348.22349148988724 483.61345851421356,348.22349148988724 484.17211776971817,348.22349148988724 485.28943628072744,348.78215074539185 487.5240733027458,349.34081000089645 488.0827325582504,349.34081000089645 "/>
      <polyline fill="#e767e7" stroke="#6767e7" style="color: rgb(72, 72, 72);" stroke-width="2" stroke-linejoin="round" stroke-dashoffset="" fill-rule="nonzero" marker-start="" marker-mid="" marker-end="" id="svg_78" points="455.68049573898315,359.3966765999794 455.68049573898315,359.3966765999794 456.79781424999237,361.0726543664932 457.35647350549704,361.63131362199783 457.35647350549704,362.18997287750244 457.9151327610016,363.86595064401627 458.4737920165062,364.9832691550254 459.0324512720108,366.1005876660347 459.5911105275154,367.2179061770439 460.14976978302,367.2179061770439 460.14976978302,367.7765654325485 "/>
      <polyline fill="#e767e7" stroke="#6767e7" style="color: rgb(72, 72, 72);" stroke-width="2" stroke-linejoin="round" stroke-dashoffset="" fill-rule="nonzero" marker-start="" marker-mid="" marker-end="" id="svg_79" points="451.7698809504509,315.82125467061996 451.7698809504509,315.82125467061996 452.3285402059555,315.82125467061996 453.44585871696466,315.82125467061996 454.56317722797394,316.9385731816292 456.23915499448776,317.4972324371338 456.79781424999237,317.4972324371338 457.9151327610016,318.05589169263834 459.5911105275154,318.614550948143 460.7084290385246,319.1732102036476 461.82574754953384,319.1732102036476 462.94306606054306,319.7318694591522 "/>
      <polyline fill="#e767e7" stroke="#6767e7" style="color: rgb(72, 72, 72);" stroke-width="2" stroke-linejoin="round" stroke-dashoffset="" fill-rule="nonzero" marker-start="" marker-mid="" marker-end="" id="svg_80" points="418.808984875679,343.19555819034576 418.808984875679,343.19555819034576 420.4849626421928,344.312876701355 422.7195996642113,344.312876701355 423.2782589197159,344.312876701355 423.8369181752205,344.312876701355 426.63021445274353,345.4301952123642 427.74753296375275,345.98885446786886 431.0994884967804,345.98885446786886 432.7754662632942,345.98885446786886 433.3341255187988,345.98885446786886 433.89278477430344,345.98885446786886 433.89278477430344,345.98885446786886 "/>
      <polyline fill="#e767e7" stroke="#6767e7" style="color: rgb(72, 72, 72);" stroke-width="2" stroke-linejoin="round" stroke-dashoffset="" fill-rule="nonzero" marker-start="" marker-mid="" marker-end="" id="svg_81" points="390.317362844944,359.95533585548407 391.9933406114578,359.95533585548407 393.11065912246704,359.95533585548407 394.78663688898087,359.95533585548407 397.5799331665039,358.8380173444748 399.81457018852234,357.7206988334656 401.4905479550362,357.7206988334656 401.4905479550362,357.16203957796097 401.4905479550362,357.16203957796097 402.6078664660454,356.60338032245636 404.2838442325592,356.60338032245636 "/>
      <polyline fill="#e767e7" stroke="#6767e7" style="color: rgb(72, 72, 72);" stroke-width="2" stroke-linejoin="round" stroke-dashoffset="" fill-rule="nonzero" marker-start="" marker-mid="" marker-end="" id="svg_82" points="376.3508814573288,332.5810323357582 376.9095407128334,332.5810323357582 378.0268592238426,332.5810323357582 379.14417773485184,332.5810323357582 381.37881475687027,332.5810323357582 383.6134517788887,332.5810323357582 385.2894295454025,332.02237308025366 386.40674805641174,332.02237308025366 388.08272582292557,332.02237308025366 "/>
      <polyline fill="#e767e7" stroke="#6767e7" style="color: rgb(72, 72, 72);" stroke-width="2" stroke-linejoin="round" stroke-dashoffset="" fill-rule="nonzero" marker-start="" marker-mid="" marker-end="" id="svg_83" points="340.03802984952927,314.70393615961075 340.03802984952927,315.26259541511536 340.03802984952927,315.82125467061996 342.2726668715477,316.9385731816292 342.8313261270523,318.05589169263834 343.3899853825569,319.1732102036476 343.9486446380615,319.7318694591522 344.50730389356613,320.29052871465683 "/>
      <polyline fill="#e767e7" stroke="#6767e7" style="color: rgb(72, 72, 72);" stroke-width="2" stroke-linejoin="round" stroke-dashoffset="" fill-rule="nonzero" marker-start="" marker-mid="" marker-end="" id="svg_84" points="321.0436151623726,304.08941030502314 320.484955906868,304.08941030502314 319.9262966513634,304.08941030502314 319.36763739585876,304.08941030502314 319.36763739585876,304.08941030502314 318.80897814035416,304.08941030502314 318.25031888484955,304.08941030502314 317.6916596293449,304.08941030502314 317.13300037384033,304.08941030502314 316.5743411183357,304.08941030502314 316.5743411183357,304.08941030502314 316.0156818628311,304.08941030502314 315.4570226073265,304.08941030502314 314.8983633518219,304.08941030502314 314.3397040963173,304.6480695605278 313.7810448408127,305.2067288160324 313.7810448408127,305.2067288160324 313.7810448408127,305.765388071537 313.2223855853081,305.765388071537 "/>
      <polyline fill="#e767e7" stroke="#6767e7" style="color: rgb(72, 72, 72);" stroke-width="2" stroke-linejoin="round" stroke-dashoffset="" fill-rule="nonzero" marker-start="" marker-mid="" marker-end="" id="svg_85" points="295.9039486646652,273.92181050777435 295.9039486646652,275.03912901878357 297.02126717567444,277.273766040802 297.57992643117905,277.8324252963066 298.13858568668365,278.9497438073158 298.6972449421883,279.50840306282043 299.25590419769287,280.62572157382965 299.8145634531975,281.74304008483887 299.8145634531975,282.3016993403435 300.3732227087021,282.8603585958481 300.9318819642067,283.4190178513527 300.9318819642067,283.9776771068573 300.9318819642067,284.5363363623619 "/>
      <polyline fill="#e767e7" stroke="#6767e7" style="color: rgb(72, 72, 72);" stroke-width="2" stroke-linejoin="round" stroke-dashoffset="" fill-rule="nonzero" marker-start="" marker-mid="" marker-end="" id="svg_86" points="307.635793030262,253.81007730960846 309.3117707967758,253.81007730960846 311.54640781879425,253.81007730960846 314.3397040963173,253.81007730960846 317.6916596293449,253.81007730960846 319.36763739585876,253.81007730960846 "/>
      <polyline fill="#e767e7" stroke="#6767e7" style="color: rgb(72, 72, 72);" stroke-width="2" stroke-linejoin="round" stroke-dashoffset="" fill-rule="nonzero" marker-start="" marker-mid="" marker-end="" id="svg_87" points="268.5296451449394,261.631306886673 268.5296451449394,262.7486253976822 269.64696365594864,263.8659439086914 270.76428216695786,265.54192167520523 271.32294142246246,266.65924018621445 272.4402599334717,267.77655869722366 272.9989191889763,268.33521795272827 273.5575784444809,268.33521795272827 "/>
      <polyline fill="#e767e7" stroke="#6767e7" style="color: rgb(72, 72, 72);" stroke-width="2" stroke-linejoin="round" stroke-dashoffset="" fill-rule="nonzero" marker-start="" marker-mid="" marker-end="" id="svg_88" points="272.4402599334717,214.14527016878128 272.4402599334717,215.2625886797905 272.4402599334717,216.3799071907997 272.4402599334717,218.61454421281815 272.4402599334717,219.17320346832275 272.4402599334717,220.84918123483658 272.4402599334717,221.9664997458458 272.4402599334717,224.20113676786423 272.4402599334717,225.31845527887344 272.4402599334717,226.43577378988266 272.4402599334717,227.55309230089188 272.4402599334717,228.6704108119011 "/>
      <polyline fill="#e767e7" stroke="#6767e7" style="color: rgb(72, 72, 72);" stroke-width="2" stroke-linejoin="round" stroke-dashoffset="" fill-rule="nonzero" marker-start="" marker-mid="" marker-end="" id="svg_89" points="290.31735610961914,180.06705558300018 290.31735610961914,181.1843740940094 291.43467462062836,181.743033349514 291.99333387613297,182.30169260501862 292.5519931316376,182.30169260501862 293.1106523871422,183.41901111602783 293.1106523871422,183.97767037153244 294.78663015365595,186.21230739355087 295.3452894091606,186.77096664905548 295.9039486646652,187.8882851600647 296.46260792016983,189.0056036710739 298.13858568668365,191.24024069309235 "/>
      <polyline fill="#e767e7" stroke="#6767e7" style="color: rgb(72, 72, 72);" stroke-width="2" stroke-linejoin="round" stroke-dashoffset="" fill-rule="nonzero" marker-start="" marker-mid="" marker-end="" id="svg_90" points="331.6581410169602,169.45252972841263 332.21680027246475,169.45252972841263 332.21680027246475,169.45252972841263 332.77545952796936,169.45252972841263 333.33411878347397,169.45252972841263 333.8927780389786,169.45252972841263 334.4514372944832,169.45252972841263 334.4514372944832,169.45252972841263 335.0100965499878,169.45252972841263 336.127415060997,169.45252972841263 336.68607431650156,169.45252972841263 337.2447335720062,169.45252972841263 337.2447335720062,169.45252972841263 337.80339282751083,169.45252972841263 338.92071133852005,169.45252972841263 338.92071133852005,169.45252972841263 340.03802984952927,169.45252972841263 340.59668910503393,169.45252972841263 "/>
    </g>
  </g>
</svg>